<?xml version="1.0" standalone="no"?>
<!DOCTYPE svg PUBLIC "-//W3C//DTD SVG 20010904//EN"
 "http://www.w3.org/TR/2001/REC-SVG-20010904/DTD/svg10.dtd">
<svg version="1.0" xmlns="http://www.w3.org/2000/svg"
 width="512.000000pt" height="512.000000pt" viewBox="0 0 512.000000 512.000000"
 preserveAspectRatio="xMidYMid meet">

<g transform="translate(0.000000,512.000000) scale(0.100000,-0.100000)"
fill="#000000" stroke="none">
<path d="M2325 5109 c-235 -24 -484 -83 -690 -164 -777 -303 -1362 -969 -1560
-1775 -53 -216 -70 -364 -70 -610 0 -254 18 -400 75 -626 50 -196 94 -313 190
-509 246 -502 653 -909 1155 -1155 260 -128 483 -199 760 -242 201 -31 550
-31 750 0 281 44 516 119 765 243 505 253 901 651 1150 1154 127 257 199 482
242 760 31 200 31 550 0 750 -43 277 -114 500 -242 760 -245 500 -648 904
-1151 1154 -250 125 -490 201 -762 242 -153 23 -473 33 -612 18z m416 -509
c246 -24 499 -94 713 -199 410 -200 747 -536 947 -946 382 -785 224 -1721
-395 -2341 -286 -286 -641 -478 -1034 -559 -911 -189 -1844 271 -2253 1110
-377 776 -228 1699 375 2323 421 435 1052 670 1647 612z"/>
<path d="M2995 3516 l-949 -442 -443 -953 c-244 -525 -442 -956 -439 -958 2
-2 138 59 302 135 165 77 445 207 624 290 179 83 473 220 654 304 l330 153
443 954 c244 524 443 955 443 957 0 2 -3 4 -7 3 -5 0 -435 -200 -958 -443z
m-310 -704 c47 -24 105 -83 131 -132 14 -26 19 -57 19 -120 0 -96 -13 -129
-74 -193 -60 -64 -103 -82 -201 -82 -98 0 -141 18 -201 82 -61 64 -74 97 -74
193 0 96 13 129 74 193 63 67 117 88 216 83 46 -2 84 -10 110 -24z"/>
</g>
</svg>
